HIERARCHY
ROOT joint_Root
{
	OFFSET 0.0 0.0 0.0
	CHANNELS 6 Xposition Yposition Zposition Zrotation Xrotation Yrotation 
	JOINT Hips
	{
		OFFSET -0.726466 93.3139 -2.00062
		CHANNELS 6 Xposition Yposition Zposition Zrotation Xrotation Yrotation 
		JOINT Spine
		{
			OFFSET 15.7357 0.0 0.0
			CHANNELS 6 Xposition Yposition Zposition Zrotation Xrotation Yrotation 
			JOINT Chest
			{
				OFFSET 8.98455 -0.406207 0.0
				CHANNELS 6 Xposition Yposition Zposition Zrotation Xrotation Yrotation 
				JOINT Neck
				{
					OFFSET 16.3773 0.0 0.0
					CHANNELS 6 Xposition Yposition Zposition Zrotation Xrotation Yrotation 
					JOINT Head
					{
						OFFSET 6.45672 0.0 0.0
						CHANNELS 6 Xposition Yposition Zposition Zrotation Xrotation Yrotation 
						End Site
						{
							OFFSET 0.0 0.0 0.0
						}
					}
				}
				JOINT Shoulder_L
				{
					OFFSET 12.9942 -0.242716 4.98039
					CHANNELS 6 Xposition Yposition Zposition Zrotation Xrotation Yrotation 
					JOINT UpperArm_L
					{
						OFFSET 5.34809 0.0 0.0
						CHANNELS 6 Xposition Yposition Zposition Zrotation Xrotation Yrotation 
						JOINT LowerArm_L
						{
							OFFSET 24.3286 1.87007e-05 0.0
							CHANNELS 6 Xposition Yposition Zposition Zrotation Xrotation Yrotation 
							JOINT Hand_L
							{
								OFFSET 22.2916 0.0 0.0
								CHANNELS 6 Xposition Yposition Zposition Zrotation Xrotation Yrotation 
								End Site
								{
									OFFSET 0.0 0.0 0.0
								}
							}
						}
					}
				}
				JOINT Shoulder_R
				{
					OFFSET 12.9945 -0.242716 -4.98039
					CHANNELS 6 Xposition Yposition Zposition Zrotation Xrotation Yrotation 
					JOINT UpperArm_R
					{
						OFFSET -5.34813 0.0 0.0
						CHANNELS 6 Xposition Yposition Zposition Zrotation Xrotation Yrotation 
						JOINT LowerArm_R
						{
							OFFSET -24.3289 0.000322201 0.0
							CHANNELS 6 Xposition Yposition Zposition Zrotation Xrotation Yrotation 
							JOINT Hand_R
							{
								OFFSET -22.2915 -0.000108084 0.0
								CHANNELS 6 Xposition Yposition Zposition Zrotation Xrotation Yrotation 
								End Site
								{
									OFFSET 0.0 0.0 0.0
								}
							}
						}
					}
				}
			}
		}
		JOINT UpperLeg_L
		{
			OFFSET -2.19248 -6.46944 0.0
			CHANNELS 6 Xposition Yposition Zposition Zrotation Xrotation Yrotation 
			JOINT LowerLeg_L
			{
				OFFSET 39.0811 0.0 -1.23785e-05
				CHANNELS 6 Xposition Yposition Zposition Zrotation Xrotation Yrotation 
				JOINT Foot_L
				{
					OFFSET 40.9854 0.0 -1.26872e-05
					CHANNELS 6 Xposition Yposition Zposition Zrotation Xrotation Yrotation 
					JOINT Toes_L
					{
						OFFSET 11.7543 0.0 0.0
						CHANNELS 6 Xposition Yposition Zposition Zrotation Xrotation Yrotation 
						End Site
						{
							OFFSET 0.0 0.0 0.0
						}
					}
				}
			}
		}
		JOINT UpperLeg_R
		{
			OFFSET -2.19251 6.46944 0.0
			CHANNELS 6 Xposition Yposition Zposition Zrotation Xrotation Yrotation 
			JOINT LowerLeg_R
			{
				OFFSET -39.0811 -0.00228153 -0.0401928
				CHANNELS 6 Xposition Yposition Zposition Zrotation Xrotation Yrotation 
				JOINT Foot_R
				{
					OFFSET -40.9854 0.0 0.0
					CHANNELS 6 Xposition Yposition Zposition Zrotation Xrotation Yrotation 
					JOINT Toes_R
					{
						OFFSET -11.7543 0.0 0.0
						CHANNELS 6 Xposition Yposition Zposition Zrotation Xrotation Yrotation 
						End Site
						{
							OFFSET 0.0 0.0 0.0
						}
					}
				}
			}
		}
	}
}
MOTION
Frames:	8
Frame Time:	0.0333333
0.000000 0.000000 0.000000 0.000000 0.000000 -0.000000 -0.646826 92.910000 0.392488 89.042500 -2.006990 1.552590 15.735700 0.000005 -0.000001 99.340100 87.816200 -99.363300 8.984550 -0.406207 -0.000000 -3.456410 0.710733 -0.024972 16.377300 -0.000001 -0.000001 5.370950 -2.272960 3.836980 6.456720 -0.000001 -0.000000 10.336200 -1.901570 -3.395210 12.994200 -0.242716 4.980390 -87.690600 -7.334600 -72.468600 5.348090 -0.000007 -0.000001 -80.435700 -31.273500 -86.899300 24.328600 0.000019 0.000005 19.002400 0.242743 -89.295200 22.291600 -0.000001 0.000005 18.618800 5.594560 -11.022700 12.994500 -0.242716 -4.980390 90.093800 -0.314430 -73.386300 -5.348130 -0.000001 -0.000004 -71.660000 -31.276400 -94.298400 -24.328900 0.000322 -0.000009 19.296600 1.961970 -84.416400 -22.291500 -0.000108 -0.000004 20.926600 5.435000 -4.112000 -2.192480 -6.469440 -0.000000 -176.531000 -8.275740 -1.615080 39.081100 -0.000007 -0.000012 -0.061856 0.207477 16.601000 40.985400 -0.000006 -0.000013 -0.325544 4.651100 -63.572000 11.754300 -0.000000 0.000003 -0.000004 -0.000057 -16.579700 -2.192510 6.469440 -0.000001 179.074000 11.835100 -179.345000 -39.081100 -0.002282 -0.040193 -0.043064 0.189613 13.749500 -40.985400 0.000008 0.000006 1.694390 7.234370 -63.193300 -11.754300 -0.000006 -0.000006 -0.005443 -0.065689 -19.246100
0.000000 0.000000 0.000000 0.000000 0.000000 -0.000000 -0.641456 92.907600 0.374767 89.024600 -2.023290 1.482930 15.735700 0.000005 -0.000001 99.558800 87.830700 -99.567500 8.984550 -0.406207 -0.000000 -3.487760 0.720933 0.004561 16.377300 -0.000001 -0.000001 5.299860 -2.236510 3.782540 6.456720 -0.000001 -0.000000 10.257300 -1.887030 -3.374480 12.994200 -0.242716 4.980390 -87.708100 -7.253250 -72.411200 5.348090 -0.000007 -0.000001 -80.291600 -31.284200 -86.557500 24.328600 0.000019 0.000005 18.632800 0.020693 -89.938800 22.291600 -0.000001 0.000005 18.447500 5.591760 -10.861500 12.994500 -0.242716 -4.980390 90.078400 -0.261223 -73.294400 -5.348130 -0.000001 -0.000004 -71.082400 -31.364300 -93.970000 -24.328900 0.000322 -0.000009 19.244000 1.976900 -84.357600 -22.291500 -0.000108 -0.000004 21.141600 5.427800 -3.864000 -2.192480 -6.469440 -0.000000 -176.523000 -8.272600 -1.708650 39.081100 -0.000007 -0.000012 -0.061690 0.206322 16.646600 40.985400 -0.000006 -0.000013 -0.314425 4.694630 -63.595100 11.754300 -0.000000 0.000003 -0.000002 -0.000026 -16.578500 -2.192510 6.469440 -0.000001 179.092000 11.871500 -179.443000 -39.081100 -0.002282 -0.040193 -0.044002 0.193080 13.774600 -40.985400 0.000008 0.000006 1.670470 7.274280 -63.185100 -11.754300 -0.000006 -0.000006 -0.005567 -0.066848 -19.293400
0.000000 0.000000 0.000000 0.000000 0.000000 -0.000000 -0.617739 92.923400 0.352116 89.048500 -1.996670 1.439460 15.735700 0.000005 -0.000001 99.022300 87.827300 -99.032200 8.984550 -0.406207 -0.000000 -3.474490 0.682054 0.000877 16.377300 -0.000001 -0.000001 5.097470 -2.176510 3.765100 6.456720 -0.000001 -0.000000 10.231000 -1.687780 -3.403060 12.994200 -0.242716 4.980390 -87.748500 -7.111510 -72.381000 5.348090 -0.000007 -0.000001 -80.050800 -31.369600 -85.549600 24.328600 0.000019 0.000005 17.725200 -0.434230 -91.359500 22.291600 -0.000001 0.000005 18.021000 5.584830 -10.473800 12.994500 -0.242716 -4.980390 90.036100 -0.119178 -73.124700 -5.348130 -0.000001 -0.000004 -70.058500 -31.388600 -93.004100 -24.328900 0.000322 -0.000009 18.801800 1.809460 -84.702700 -22.291500 -0.000108 -0.000004 21.477900 5.419580 -3.584910 -2.192480 -6.469440 -0.000000 -176.587000 -8.290350 -1.707330 39.081100 -0.000007 -0.000012 -0.059521 0.200867 16.505600 40.985400 -0.000006 -0.000013 -0.296424 4.661740 -63.503500 11.754300 -0.000000 0.000003 -0.000002 -0.000029 -16.578600 -2.192510 6.469440 -0.000001 179.088000 11.896200 -179.475000 -39.081100 -0.002282 -0.040193 -0.041378 0.183189 13.716000 -40.985400 0.000008 0.000006 1.843040 7.245940 -63.166700 -11.754300 -0.000006 -0.000006 -0.005769 -0.068725 -19.369900
0.000000 0.000000 0.000000 0.000000 0.000000 -0.000000 -0.590333 92.941700 0.324435 89.030200 -2.060490 1.342870 15.735700 0.000005 -0.000001 98.316100 87.827000 -98.316000 8.984550 -0.406207 -0.000000 -3.465870 0.628230 0.019304 16.377300 -0.000001 -0.000001 4.863210 -2.050590 3.732730 6.456720 -0.000001 -0.000000 9.988730 -1.301420 -3.374510 12.994200 -0.242716 4.980390 -87.852200 -6.734310 -72.264900 5.348090 -0.000007 -0.000001 -79.116100 -31.598500 -83.499300 24.328600 0.000019 0.000005 14.738300 -0.980190 -93.725100 22.291600 -0.000001 0.000005 17.575800 5.578160 -10.112500 12.994500 -0.242716 -4.980390 89.965200 0.112624 -72.859400 -5.348130 -0.000001 -0.000004 -68.349200 -31.243900 -90.910500 -24.328900 0.000322 -0.000009 17.426600 1.277840 -85.938400 -22.291500 -0.000108 -0.000004 21.650000 5.408340 -3.210420 -2.192480 -6.469440 -0.000000 -176.594000 -8.326880 -1.752160 39.081100 -0.000007 -0.000012 -0.060119 0.204645 16.371300 40.985400 -0.000006 -0.000013 -0.296795 4.628410 -63.419400 11.754300 -0.000000 0.000003 -0.000003 -0.000046 -16.579300 -2.192510 6.469440 -0.000001 179.156000 11.826800 -179.551000 -39.081100 -0.002282 -0.040193 -0.037491 0.168541 13.615700 -40.985400 0.000008 0.000006 2.078850 7.175490 -63.125200 -11.754300 -0.000006 -0.000006 -0.005465 -0.065900 -19.254700
0.000000 0.000000 0.000000 0.000000 0.000000 -0.000000 -0.572280 92.945900 0.283570 89.039000 -2.150530 1.242750 15.735700 0.000005 -0.000001 97.801400 87.815500 -97.814700 8.984550 -0.406207 -0.000000 -3.437500 0.594030 -0.008699 16.377300 -0.000001 -0.000001 4.627970 -1.919690 3.778580 6.456720 -0.000001 -0.000000 9.583060 -0.881386 -3.339190 12.994200 -0.242716 4.980390 -88.033600 -6.147100 -72.222000 5.348090 -0.000007 -0.000001 -77.084700 -31.857000 -79.978900 24.328600 0.000019 0.000005 10.303600 -1.319140 -97.228000 22.291600 -0.000001 0.000005 17.417100 5.569580 -9.666950 12.994500 -0.242716 -4.980390 89.829200 0.542028 -72.507100 -5.348130 -0.000001 -0.000004 -65.401400 -30.926200 -87.218000 -24.328900 0.000322 -0.000009 15.400400 0.483623 -88.248900 -22.291500 -0.000108 -0.000004 21.968500 5.388360 -2.562940 -2.192480 -6.469440 -0.000000 -176.640000 -8.398310 -1.856890 39.081100 -0.000007 -0.000012 -0.058494 0.199387 16.349900 40.985400 -0.000006 -0.000013 -0.275556 4.629010 -63.393700 11.754300 -0.000000 0.000003 -0.000002 -0.000032 -16.578700 -2.192510 6.469440 -0.000001 179.154000 11.693300 -179.704000 -39.081100 -0.002282 -0.040193 -0.038512 0.172663 13.622900 -40.985400 0.000008 0.000006 1.998180 7.197460 -63.073200 -11.754300 -0.000006 -0.000006 -0.005387 -0.065164 -19.224700
0.000000 0.000000 0.000000 0.000000 0.000000 -0.000000 -0.551255 92.960100 0.244758 89.009400 -2.290660 1.168480 15.735700 0.000005 -0.000001 97.729800 87.781000 -97.735700 8.984550 -0.406207 -0.000000 -3.368380 0.597206 0.005676 16.377300 -0.000001 -0.000001 4.237220 -1.856460 3.853930 6.456720 -0.000001 -0.000000 9.310000 -0.741366 -3.323990 12.994200 -0.242716 4.980390 -88.246700 -5.489700 -72.256400 5.348090 -0.000007 -0.000001 -73.655400 -31.795800 -74.349900 24.328600 0.000019 0.000005 5.009020 -1.049950 -101.833000 22.291600 -0.000001 0.000005 18.090300 5.580720 -10.247000 12.994500 -0.242716 -4.980390 89.631500 1.160330 -72.379000 -5.348130 -0.000001 -0.000004 -61.038700 -30.542500 -81.676500 -24.328900 0.000322 -0.000009 12.875700 -0.424988 -91.862100 -22.291500 -0.000108 -0.000004 21.830900 5.374760 -2.132890 -2.192480 -6.469440 -0.000000 -176.633000 -8.534040 -1.915890 39.081100 -0.000007 -0.000012 -0.058458 0.200169 16.280100 40.985400 -0.000006 -0.000013 -0.274198 4.587580 -63.331600 11.754300 -0.000000 0.000003 -0.000002 -0.000025 -16.578500 -2.192510 6.469440 -0.000001 179.213000 11.620000 -179.781000 -39.081100 -0.002282 -0.040193 -0.035432 0.160968 13.540500 -40.985400 0.000008 0.000006 2.141950 7.214650 -63.012100 -11.754300 -0.000006 -0.000006 -0.005669 -0.067800 -19.332200
0.000000 0.000000 0.000000 0.000000 0.000000 -0.000000 -0.519551 92.967000 0.199132 89.022800 -2.493680 1.012240 15.735700 0.000005 -0.000001 97.624500 87.739100 -97.632400 8.984550 -0.406207 -0.000000 -3.284260 0.600432 0.001472 16.377300 -0.000001 -0.000001 3.677220 -1.838980 3.857100 6.456720 -0.000001 -0.000000 8.987620 -0.626026 -3.275840 12.994200 -0.242716 4.980390 -88.527300 -4.599160 -72.223100 5.348090 -0.000007 -0.000001 -68.803500 -30.980200 -67.000800 24.328600 0.000019 0.000005 1.026170 -0.310069 -106.872000 22.291600 -0.000001 0.000005 18.663000 5.601150 -11.409400 12.994500 -0.242716 -4.980390 89.366700 1.983500 -72.287800 -5.348130 -0.000001 -0.000004 -55.959000 -29.358400 -74.900300 -24.328900 0.000322 -0.000009 11.272800 -1.285700 -96.427300 -22.291500 -0.000108 -0.000004 20.261200 5.370490 -2.001660 -2.192480 -6.469440 -0.000000 -176.714000 -8.558780 -2.056800 39.081100 -0.000007 -0.000012 -0.057293 0.196848 16.227600 40.985400 -0.000006 -0.000013 -0.268361 4.431370 -63.293800 11.754300 -0.000000 0.000003 -0.000002 -0.000034 -16.578800 -2.192510 6.469440 -0.000001 179.181000 11.545800 -179.976000 -39.081100 -0.002282 -0.040193 -0.037725 0.171032 13.498900 -40.985400 0.000008 0.000006 1.951470 7.395420 -62.908800 -11.754300 -0.000006 -0.000006 -0.005454 -0.065790 -19.250200
0.000000 0.000000 0.000000 0.000000 0.000000 -0.000000 -0.487135 92.976200 0.142723 88.967700 -2.709720 0.933397 15.735700 0.000005 -0.000001 98.587400 87.675300 -98.554600 8.984550 -0.406207 -0.000000 -3.169120 0.690790 0.084803 16.377300 -0.000001 -0.000001 3.212070 -1.787610 3.840430 6.456720 -0.000001 -0.000000 8.614070 -0.737674 -3.390690 12.994200 -0.242716 4.980390 -88.915100 -3.384530 -72.215500 5.348090 -0.000007 -0.000001 -62.906100 -28.446500 -58.240800 24.328600 0.000019 0.000005 -0.226883 0.089601 -111.521000 22.291600 -0.000001 0.000005 18.914100 5.615600 -12.322000 12.994500 -0.242716 -4.980390 89.072400 2.888850 -72.189400 -5.348130 -0.000001 -0.000004 -49.898800 -26.883200 -66.950300 -24.328900 0.000322 -0.000009 9.515930 -1.908750 -101.245000 -22.291500 -0.000108 -0.000004 19.025600 5.380740 -2.324650 -2.192480 -6.469440 -0.000000 -176.701000 -8.628080 -2.161010 39.081100 -0.000007 -0.000012 -0.057557 0.197597 16.240100 40.985400 -0.000006 -0.000013 -0.276512 4.256550 -63.272100 11.754300 -0.000000 0.000003 -0.000002 -0.000036 -16.578900 -2.192510 6.469440 -0.000001 179.259000 11.411100 179.911000 -39.081100 -0.002282 -0.040193 -0.036027 0.164671 13.442800 -40.985400 0.000008 0.000006 2.025520 7.449490 -62.832000 -11.754300 -0.000006 -0.000006 -0.005460 -0.065847 -19.252600
